# xmcd CD database file
#
# Track frame offsets:
#	150
#	18954
#	39015
#	58578
#	81784
#	106140
#	127114
#	147457
#	166344
#	182790
#	204377
#	219980
#	236004
#	255720
#	274726
#	294547
#
# Disc length: 4186 seconds
#
# Revision: 1
# Processed by: cddbd v1.5.2PL0 Copyright (c) Steve Scherf et al.
# Submitted via: CDex 2.12
#
DISCID=e3105810
DTITLE=l - quin
DYEAR=1900
DGENRE=Blues
TTITLE0=m
TTITLE1=n
TTITLE2=b
TTITLE3=d
TTITLE4=sa
TTITLE5=x
TTITLE6=c
TTITLE7=x
TTITLE8=d
TTITLE9=f
TTITLE10=g
TTITLE11=h
TTITLE12=j
TTITLE13=k
TTITLE14=z
TTITLE15=t
EXTD=
EXTT0=
EXTT1=
EXTT2=
EXTT3=
EXTT4=
EXTT5=
EXTT6=
EXTT7=
EXTT8=
EXTT9=
EXTT10=
EXTT11=
EXTT12=
EXTT13=
EXTT14=
EXTT15=
PLAYORDER=
